<mxfile host="Electron" modified="2024-04-03T04:14:40.602Z" agent="Mozilla/5.0 (X11; Linux x86_64) AppleWebKit/537.36 (KHTML, like Gecko) draw.io/24.0.4 Chrome/120.0.6099.109 Electron/28.1.0 Safari/537.36" etag="u_kFKb1tbIFxQpiybwf3" version="24.0.4" type="device" pages="2">
  <diagram name="Page-1" id="mX2h6JksRinRSsMRI6-A">
    <mxGraphModel dx="1000" dy="603" grid="1" gridSize="10" guides="1" tooltips="1" connect="1" arrows="1" fold="1" page="1" pageScale="1" pageWidth="827" pageHeight="1169" math="0" shadow="0">
      <root>
        <mxCell id="0" />
        <mxCell id="1" parent="0" />
        <mxCell id="oQ6gl76hAbbXNXq-nnLv-1" value="" style="rounded=0;whiteSpace=wrap;html=1;fillColor=#f5f5f5;fontColor=#333333;strokeColor=#666666;" parent="1" vertex="1">
          <mxGeometry x="90" y="110" width="900" height="600" as="geometry" />
        </mxCell>
        <mxCell id="oQ6gl76hAbbXNXq-nnLv-2" value="&lt;font style=&quot;font-size: 24px;&quot;&gt;LETC Core Cache&lt;/font&gt;" style="text;html=1;strokeColor=none;fillColor=none;align=center;verticalAlign=middle;whiteSpace=wrap;rounded=0;" parent="1" vertex="1">
          <mxGeometry x="100" y="110" width="210" height="30" as="geometry" />
        </mxCell>
        <mxCell id="dpsM1MxhAgp5L9eeS-YR-1" value="SRAM" style="rounded=0;whiteSpace=wrap;html=1;" parent="1" vertex="1">
          <mxGeometry x="490" y="275" width="290" height="270" as="geometry" />
        </mxCell>
        <mxCell id="dpsM1MxhAgp5L9eeS-YR-3" value="&lt;div&gt;TODO&lt;/div&gt;Will the SRAM have one cycle or two cycles of latency (BRAM or LUTRAM)?" style="shape=note;size=20;whiteSpace=wrap;html=1;fillColor=#fff2cc;strokeColor=#d6b656;" parent="1" vertex="1">
          <mxGeometry x="485" y="570" width="130" height="110" as="geometry" />
        </mxCell>
        <mxCell id="dpsM1MxhAgp5L9eeS-YR-6" value="V" style="rounded=0;whiteSpace=wrap;html=1;" parent="1" vertex="1">
          <mxGeometry x="490" y="275" width="40" height="35" as="geometry" />
        </mxCell>
        <mxCell id="dpsM1MxhAgp5L9eeS-YR-7" value="D" style="rounded=0;whiteSpace=wrap;html=1;" parent="1" vertex="1">
          <mxGeometry x="530" y="275" width="40" height="35" as="geometry" />
        </mxCell>
        <mxCell id="dpsM1MxhAgp5L9eeS-YR-8" value="TODO cache specs:&lt;br&gt;Writeback, ways, line length, associativity/direct mapped&lt;div&gt;&lt;/div&gt;" style="shape=note;size=20;whiteSpace=wrap;html=1;fillColor=#fff2cc;strokeColor=#d6b656;" parent="1" vertex="1">
          <mxGeometry x="640" y="570" width="130" height="110" as="geometry" />
        </mxCell>
        <mxCell id="dpsM1MxhAgp5L9eeS-YR-9" value="Tag" style="rounded=0;whiteSpace=wrap;html=1;" parent="1" vertex="1">
          <mxGeometry x="570" y="275" width="80" height="35" as="geometry" />
        </mxCell>
        <mxCell id="dpsM1MxhAgp5L9eeS-YR-10" value="Data" style="rounded=0;whiteSpace=wrap;html=1;" parent="1" vertex="1">
          <mxGeometry x="650" y="275" width="130" height="35" as="geometry" />
        </mxCell>
        <mxCell id="dpsM1MxhAgp5L9eeS-YR-12" value="" style="ellipse;shape=cloud;whiteSpace=wrap;html=1;" parent="1" vertex="1">
          <mxGeometry x="90" y="340" width="370" height="140" as="geometry" />
        </mxCell>
        <mxCell id="dpsM1MxhAgp5L9eeS-YR-13" value="Line offset" style="rounded=0;whiteSpace=wrap;html=1;" parent="1" vertex="1">
          <mxGeometry x="325" y="415" width="50" height="30" as="geometry" />
        </mxCell>
        <mxCell id="dpsM1MxhAgp5L9eeS-YR-14" value="Compared against tag" style="rounded=0;whiteSpace=wrap;html=1;" parent="1" vertex="1">
          <mxGeometry x="180" y="415" width="85" height="30" as="geometry" />
        </mxCell>
        <mxCell id="dpsM1MxhAgp5L9eeS-YR-15" value="&lt;div&gt;Cache Access Logic&lt;/div&gt;How physical address is processed" style="text;html=1;align=center;verticalAlign=middle;whiteSpace=wrap;rounded=0;" parent="1" vertex="1">
          <mxGeometry x="185" y="375" width="200" height="30" as="geometry" />
        </mxCell>
        <mxCell id="dpsM1MxhAgp5L9eeS-YR-16" value="SRAM Index" style="rounded=0;whiteSpace=wrap;html=1;" parent="1" vertex="1">
          <mxGeometry x="265" y="415" width="60" height="30" as="geometry" />
        </mxCell>
        <mxCell id="dpsM1MxhAgp5L9eeS-YR-17" value="" style="curved=1;endArrow=classic;html=1;rounded=0;startArrow=classic;startFill=1;exitX=0;exitY=0.644;exitDx=0;exitDy=0;exitPerimeter=0;" parent="1" source="oQ6gl76hAbbXNXq-nnLv-1" edge="1">
          <mxGeometry width="50" height="50" relative="1" as="geometry">
            <mxPoint x="100" y="500" as="sourcePoint" />
            <mxPoint x="150" y="450" as="targetPoint" />
            <Array as="points">
              <mxPoint x="150" y="500" />
              <mxPoint x="100" y="450" />
            </Array>
          </mxGeometry>
        </mxCell>
        <mxCell id="dpsM1MxhAgp5L9eeS-YR-22" value="Cache I/F" style="edgeLabel;html=1;align=center;verticalAlign=middle;resizable=0;points=[];" parent="dpsM1MxhAgp5L9eeS-YR-17" vertex="1" connectable="0">
          <mxGeometry x="0.1759" y="-1" relative="1" as="geometry">
            <mxPoint x="2" y="3" as="offset" />
          </mxGeometry>
        </mxCell>
        <mxCell id="dpsM1MxhAgp5L9eeS-YR-19" value="TODO define cache interface (should be constant regardless of the cache specs/size/ways/&lt;div&gt;length/associativity&lt;div&gt;&lt;/div&gt;&lt;/div&gt;" style="shape=note;size=20;whiteSpace=wrap;html=1;fillColor=#fff2cc;strokeColor=#d6b656;" parent="1" vertex="1">
          <mxGeometry x="120" y="500" width="130" height="110" as="geometry" />
        </mxCell>
        <mxCell id="dpsM1MxhAgp5L9eeS-YR-20" value="" style="curved=1;endArrow=classic;html=1;rounded=0;entryX=0;entryY=0.25;entryDx=0;entryDy=0;exitX=0.876;exitY=0.5;exitDx=0;exitDy=0;exitPerimeter=0;startArrow=classic;startFill=1;" parent="1" source="dpsM1MxhAgp5L9eeS-YR-12" target="dpsM1MxhAgp5L9eeS-YR-1" edge="1">
          <mxGeometry width="50" height="50" relative="1" as="geometry">
            <mxPoint x="414" y="405" as="sourcePoint" />
            <mxPoint x="464" y="355" as="targetPoint" />
            <Array as="points">
              <mxPoint x="464" y="405" />
              <mxPoint x="414" y="355" />
            </Array>
          </mxGeometry>
        </mxCell>
        <mxCell id="dpsM1MxhAgp5L9eeS-YR-23" style="edgeStyle=orthogonalEdgeStyle;rounded=0;orthogonalLoop=1;jettySize=auto;html=1;exitX=0.55;exitY=0.95;exitDx=0;exitDy=0;exitPerimeter=0;entryX=0.75;entryY=0;entryDx=0;entryDy=0;startArrow=classic;startFill=1;" parent="1" source="dpsM1MxhAgp5L9eeS-YR-21" target="dpsM1MxhAgp5L9eeS-YR-9" edge="1">
          <mxGeometry relative="1" as="geometry" />
        </mxCell>
        <mxCell id="dpsM1MxhAgp5L9eeS-YR-24" style="edgeStyle=orthogonalEdgeStyle;rounded=0;orthogonalLoop=1;jettySize=auto;html=1;exitX=0.875;exitY=0.5;exitDx=0;exitDy=0;exitPerimeter=0;entryX=1;entryY=0.5;entryDx=0;entryDy=0;startArrow=classic;startFill=1;" parent="1" source="dpsM1MxhAgp5L9eeS-YR-21" target="oQ6gl76hAbbXNXq-nnLv-1" edge="1">
          <mxGeometry relative="1" as="geometry">
            <Array as="points">
              <mxPoint x="870" y="180" />
              <mxPoint x="870" y="410" />
            </Array>
          </mxGeometry>
        </mxCell>
        <mxCell id="dpsM1MxhAgp5L9eeS-YR-25" value="LIMP I/F" style="edgeLabel;html=1;align=center;verticalAlign=middle;resizable=0;points=[];" parent="dpsM1MxhAgp5L9eeS-YR-24" vertex="1" connectable="0">
          <mxGeometry x="0.0463" y="1" relative="1" as="geometry">
            <mxPoint as="offset" />
          </mxGeometry>
        </mxCell>
        <mxCell id="dpsM1MxhAgp5L9eeS-YR-21" value="Cache miss /&lt;div&gt;writeback /&lt;/div&gt;&lt;div&gt;writethrough FSM&lt;/div&gt;" style="ellipse;shape=cloud;whiteSpace=wrap;html=1;" parent="1" vertex="1">
          <mxGeometry x="520" y="110" width="210" height="140" as="geometry" />
        </mxCell>
        <mxCell id="dpsM1MxhAgp5L9eeS-YR-26" value="VERY ROUGH,&lt;div&gt;&lt;/div&gt;&lt;div&gt;we need to design the cache interface and all of the cache specs&lt;/div&gt;" style="shape=note;size=20;whiteSpace=wrap;html=1;fillColor=#fff2cc;strokeColor=#d6b656;" parent="1" vertex="1">
          <mxGeometry x="220" y="190" width="130" height="110" as="geometry" />
        </mxCell>
        <mxCell id="dpsM1MxhAgp5L9eeS-YR-27" style="edgeStyle=orthogonalEdgeStyle;rounded=0;orthogonalLoop=1;jettySize=auto;html=1;exitX=0.625;exitY=0.2;exitDx=0;exitDy=0;exitPerimeter=0;entryX=0.13;entryY=0.77;entryDx=0;entryDy=0;entryPerimeter=0;startArrow=classic;startFill=1;" parent="1" source="dpsM1MxhAgp5L9eeS-YR-12" target="dpsM1MxhAgp5L9eeS-YR-21" edge="1">
          <mxGeometry relative="1" as="geometry">
            <Array as="points">
              <mxPoint x="321" y="330" />
              <mxPoint x="390" y="330" />
              <mxPoint x="390" y="250" />
              <mxPoint x="547" y="250" />
            </Array>
          </mxGeometry>
        </mxCell>
        <mxCell id="dpsM1MxhAgp5L9eeS-YR-28" value="Coordination /&lt;div&gt;Arbitration potentially&lt;/div&gt;" style="edgeLabel;html=1;align=center;verticalAlign=middle;resizable=0;points=[];" parent="dpsM1MxhAgp5L9eeS-YR-27" vertex="1" connectable="0">
          <mxGeometry x="-0.2863" y="5" relative="1" as="geometry">
            <mxPoint x="29" y="-10" as="offset" />
          </mxGeometry>
        </mxCell>
      </root>
    </mxGraphModel>
  </diagram>
  <diagram name="More well defined" id="Pk1WFI58LcsDDqrN5oED">
    <mxGraphModel dx="1500" dy="904" grid="1" gridSize="10" guides="1" tooltips="1" connect="1" arrows="1" fold="1" page="1" pageScale="1" pageWidth="827" pageHeight="1169" math="0" shadow="0">
      <root>
        <mxCell id="tzvmRdzede0Eh-RmRUq3-0" />
        <mxCell id="tzvmRdzede0Eh-RmRUq3-1" parent="tzvmRdzede0Eh-RmRUq3-0" />
        <mxCell id="rM5vIGvCxiDx_ptPGMJ--14" style="edgeStyle=orthogonalEdgeStyle;rounded=0;orthogonalLoop=1;jettySize=auto;html=1;exitX=0;exitY=0.5;exitDx=0;exitDy=0;startArrow=classic;startFill=1;" edge="1" parent="tzvmRdzede0Eh-RmRUq3-1" source="tzvmRdzede0Eh-RmRUq3-2">
          <mxGeometry relative="1" as="geometry">
            <mxPoint x="10" y="465" as="targetPoint" />
          </mxGeometry>
        </mxCell>
        <mxCell id="rM5vIGvCxiDx_ptPGMJ--15" value="LIMP&lt;div&gt;(From Stage)&lt;/div&gt;" style="edgeLabel;html=1;align=center;verticalAlign=middle;resizable=0;points=[];" vertex="1" connectable="0" parent="rM5vIGvCxiDx_ptPGMJ--14">
          <mxGeometry x="0.1232" y="-1" relative="1" as="geometry">
            <mxPoint y="26" as="offset" />
          </mxGeometry>
        </mxCell>
        <mxCell id="tzvmRdzede0Eh-RmRUq3-2" value="" style="rounded=0;whiteSpace=wrap;html=1;fillColor=#f5f5f5;fontColor=#333333;strokeColor=#666666;" vertex="1" parent="tzvmRdzede0Eh-RmRUq3-1">
          <mxGeometry x="90" y="110" width="900" height="710" as="geometry" />
        </mxCell>
        <mxCell id="tzvmRdzede0Eh-RmRUq3-3" value="&lt;font style=&quot;font-size: 24px;&quot;&gt;LETC Core Cache&lt;/font&gt;" style="text;html=1;strokeColor=none;fillColor=none;align=center;verticalAlign=middle;whiteSpace=wrap;rounded=0;" vertex="1" parent="tzvmRdzede0Eh-RmRUq3-1">
          <mxGeometry x="100" y="110" width="210" height="30" as="geometry" />
        </mxCell>
        <mxCell id="rM5vIGvCxiDx_ptPGMJ--2" value="" style="ellipse;shape=cloud;whiteSpace=wrap;html=1;" vertex="1" parent="tzvmRdzede0Eh-RmRUq3-1">
          <mxGeometry x="70" y="120" width="330" height="210" as="geometry" />
        </mxCell>
        <mxCell id="rM5vIGvCxiDx_ptPGMJ--1" value="" style="group" vertex="1" connectable="0" parent="tzvmRdzede0Eh-RmRUq3-1">
          <mxGeometry x="150" y="190" width="195" height="60" as="geometry" />
        </mxCell>
        <mxCell id="tzvmRdzede0Eh-RmRUq3-12" value="Line offset" style="rounded=0;whiteSpace=wrap;html=1;" vertex="1" parent="rM5vIGvCxiDx_ptPGMJ--1">
          <mxGeometry x="145" width="50" height="30" as="geometry" />
        </mxCell>
        <mxCell id="tzvmRdzede0Eh-RmRUq3-13" value="Compared against tag" style="rounded=0;whiteSpace=wrap;html=1;" vertex="1" parent="rM5vIGvCxiDx_ptPGMJ--1">
          <mxGeometry width="85" height="30" as="geometry" />
        </mxCell>
        <mxCell id="tzvmRdzede0Eh-RmRUq3-15" value="SRAM Index" style="rounded=0;whiteSpace=wrap;html=1;" vertex="1" parent="rM5vIGvCxiDx_ptPGMJ--1">
          <mxGeometry x="85" width="60" height="30" as="geometry" />
        </mxCell>
        <mxCell id="rM5vIGvCxiDx_ptPGMJ--5" value="SRAM line format" style="text;html=1;align=center;verticalAlign=middle;whiteSpace=wrap;rounded=0;" vertex="1" parent="rM5vIGvCxiDx_ptPGMJ--1">
          <mxGeometry x="-5" y="28" width="200" height="30" as="geometry" />
        </mxCell>
        <mxCell id="rM5vIGvCxiDx_ptPGMJ--4" value="How physical address is processed" style="text;html=1;align=center;verticalAlign=middle;whiteSpace=wrap;rounded=0;" vertex="1" parent="tzvmRdzede0Eh-RmRUq3-1">
          <mxGeometry x="150" y="165" width="200" height="30" as="geometry" />
        </mxCell>
        <mxCell id="rM5vIGvCxiDx_ptPGMJ--7" value="" style="group" vertex="1" connectable="0" parent="tzvmRdzede0Eh-RmRUq3-1">
          <mxGeometry x="150" y="240" width="290" height="35" as="geometry" />
        </mxCell>
        <mxCell id="tzvmRdzede0Eh-RmRUq3-6" value="V" style="rounded=0;whiteSpace=wrap;html=1;" vertex="1" parent="rM5vIGvCxiDx_ptPGMJ--7">
          <mxGeometry width="40" height="35" as="geometry" />
        </mxCell>
        <mxCell id="tzvmRdzede0Eh-RmRUq3-7" value="D" style="rounded=0;whiteSpace=wrap;html=1;" vertex="1" parent="rM5vIGvCxiDx_ptPGMJ--7">
          <mxGeometry x="40" width="40" height="35" as="geometry" />
        </mxCell>
        <mxCell id="tzvmRdzede0Eh-RmRUq3-9" value="Tag" style="rounded=0;whiteSpace=wrap;html=1;" vertex="1" parent="rM5vIGvCxiDx_ptPGMJ--7">
          <mxGeometry x="80" width="50" height="35" as="geometry" />
        </mxCell>
        <mxCell id="tzvmRdzede0Eh-RmRUq3-10" value="Data" style="rounded=0;whiteSpace=wrap;html=1;" vertex="1" parent="rM5vIGvCxiDx_ptPGMJ--7">
          <mxGeometry x="130" width="60" height="35" as="geometry" />
        </mxCell>
        <mxCell id="rM5vIGvCxiDx_ptPGMJ--12" value="" style="group" vertex="1" connectable="0" parent="tzvmRdzede0Eh-RmRUq3-1">
          <mxGeometry x="530" y="390" width="210" height="300" as="geometry" />
        </mxCell>
        <mxCell id="tzvmRdzede0Eh-RmRUq3-4" value="SRAM&lt;div&gt;&lt;br&gt;&lt;/div&gt;&lt;div&gt;&lt;br&gt;&lt;/div&gt;&lt;div&gt;&lt;br&gt;&lt;/div&gt;&lt;div&gt;&lt;br&gt;&lt;/div&gt;&lt;div&gt;&lt;br&gt;&lt;/div&gt;&lt;div&gt;&lt;br&gt;&lt;/div&gt;&lt;div&gt;&lt;br&gt;&lt;/div&gt;" style="rounded=0;whiteSpace=wrap;html=1;" vertex="1" parent="rM5vIGvCxiDx_ptPGMJ--12">
          <mxGeometry width="206" height="290" as="geometry" />
        </mxCell>
        <mxCell id="rM5vIGvCxiDx_ptPGMJ--8" value="" style="rounded=0;whiteSpace=wrap;html=1;" vertex="1" parent="rM5vIGvCxiDx_ptPGMJ--12">
          <mxGeometry width="40" height="290" as="geometry" />
        </mxCell>
        <mxCell id="rM5vIGvCxiDx_ptPGMJ--9" value="" style="triangle;whiteSpace=wrap;html=1;direction=south;" vertex="1" parent="rM5vIGvCxiDx_ptPGMJ--12">
          <mxGeometry width="40" height="48.333333333333336" as="geometry" />
        </mxCell>
        <mxCell id="rM5vIGvCxiDx_ptPGMJ--52" value="" style="endArrow=none;dashed=1;html=1;rounded=0;entryX=1;entryY=0.5;entryDx=0;entryDy=0;exitX=0;exitY=0.5;exitDx=0;exitDy=0;" edge="1" parent="rM5vIGvCxiDx_ptPGMJ--12" source="rM5vIGvCxiDx_ptPGMJ--8" target="tzvmRdzede0Eh-RmRUq3-4">
          <mxGeometry width="50" height="50" relative="1" as="geometry">
            <mxPoint y="150" as="sourcePoint" />
            <mxPoint x="50" y="100" as="targetPoint" />
          </mxGeometry>
        </mxCell>
        <mxCell id="rM5vIGvCxiDx_ptPGMJ--53" value="Port 1" style="text;html=1;align=center;verticalAlign=middle;whiteSpace=wrap;rounded=0;" vertex="1" parent="rM5vIGvCxiDx_ptPGMJ--12">
          <mxGeometry x="73" width="60" height="30" as="geometry" />
        </mxCell>
        <mxCell id="rM5vIGvCxiDx_ptPGMJ--54" value="Port 2" style="text;html=1;align=center;verticalAlign=middle;whiteSpace=wrap;rounded=0;" vertex="1" parent="rM5vIGvCxiDx_ptPGMJ--12">
          <mxGeometry x="73" y="150" width="60" height="30" as="geometry" />
        </mxCell>
        <mxCell id="rM5vIGvCxiDx_ptPGMJ--16" style="edgeStyle=orthogonalEdgeStyle;rounded=0;orthogonalLoop=1;jettySize=auto;html=1;exitX=0;exitY=0.5;exitDx=0;exitDy=0;startArrow=classic;startFill=1;" edge="1" parent="tzvmRdzede0Eh-RmRUq3-1">
          <mxGeometry relative="1" as="geometry">
            <mxPoint x="990" y="464.58" as="targetPoint" />
            <mxPoint x="1070" y="464.58" as="sourcePoint" />
          </mxGeometry>
        </mxCell>
        <mxCell id="rM5vIGvCxiDx_ptPGMJ--17" value="LIMP&lt;div&gt;(To AXI FSM)&lt;/div&gt;" style="edgeLabel;html=1;align=center;verticalAlign=middle;resizable=0;points=[];" vertex="1" connectable="0" parent="rM5vIGvCxiDx_ptPGMJ--16">
          <mxGeometry x="0.1232" y="-1" relative="1" as="geometry">
            <mxPoint y="26" as="offset" />
          </mxGeometry>
        </mxCell>
        <mxCell id="rM5vIGvCxiDx_ptPGMJ--66" style="edgeStyle=orthogonalEdgeStyle;rounded=0;orthogonalLoop=1;jettySize=auto;html=1;exitX=0.31;exitY=0.8;exitDx=0;exitDy=0;exitPerimeter=0;entryX=0;entryY=0.25;entryDx=0;entryDy=0;" edge="1" parent="tzvmRdzede0Eh-RmRUq3-1" source="rM5vIGvCxiDx_ptPGMJ--22" target="rM5vIGvCxiDx_ptPGMJ--8">
          <mxGeometry relative="1" as="geometry">
            <Array as="points">
              <mxPoint x="572" y="370" />
              <mxPoint x="490" y="370" />
              <mxPoint x="490" y="462" />
            </Array>
          </mxGeometry>
        </mxCell>
        <mxCell id="rM5vIGvCxiDx_ptPGMJ--22" value="Cache FSM:&lt;br&gt;IDLE,&lt;div&gt;HIT,&lt;/div&gt;&lt;div&gt;REFILL,&lt;/div&gt;&lt;div&gt;FLUSHING&lt;/div&gt;" style="ellipse;shape=cloud;whiteSpace=wrap;html=1;" vertex="1" parent="tzvmRdzede0Eh-RmRUq3-1">
          <mxGeometry x="510" y="220" width="200" height="150" as="geometry" />
        </mxCell>
        <mxCell id="rM5vIGvCxiDx_ptPGMJ--32" style="edgeStyle=orthogonalEdgeStyle;rounded=0;orthogonalLoop=1;jettySize=auto;html=1;exitX=1;exitY=0.5;exitDx=0;exitDy=0;entryX=0.875;entryY=0.5;entryDx=0;entryDy=0;entryPerimeter=0;startArrow=classic;startFill=1;" edge="1" parent="tzvmRdzede0Eh-RmRUq3-1" source="tzvmRdzede0Eh-RmRUq3-2" target="rM5vIGvCxiDx_ptPGMJ--22">
          <mxGeometry relative="1" as="geometry">
            <Array as="points">
              <mxPoint x="960" y="465" />
              <mxPoint x="960" y="295" />
            </Array>
          </mxGeometry>
        </mxCell>
        <mxCell id="rM5vIGvCxiDx_ptPGMJ--33" style="edgeStyle=orthogonalEdgeStyle;rounded=0;orthogonalLoop=1;jettySize=auto;html=1;exitX=0.16;exitY=0.55;exitDx=0;exitDy=0;startArrow=classic;startFill=1;endArrow=none;endFill=0;exitPerimeter=0;fillColor=#d5e8d4;strokeColor=#82b366;" edge="1" parent="tzvmRdzede0Eh-RmRUq3-1" source="rM5vIGvCxiDx_ptPGMJ--22">
          <mxGeometry relative="1" as="geometry">
            <mxPoint x="90" y="390" as="targetPoint" />
            <mxPoint x="170" y="390" as="sourcePoint" />
            <Array as="points">
              <mxPoint x="380" y="302" />
              <mxPoint x="380" y="390" />
            </Array>
          </mxGeometry>
        </mxCell>
        <mxCell id="rM5vIGvCxiDx_ptPGMJ--34" value="valid" style="edgeLabel;html=1;align=center;verticalAlign=middle;resizable=0;points=[];" vertex="1" connectable="0" parent="rM5vIGvCxiDx_ptPGMJ--33">
          <mxGeometry x="0.1232" y="-1" relative="1" as="geometry">
            <mxPoint x="5" y="1" as="offset" />
          </mxGeometry>
        </mxCell>
        <mxCell id="rM5vIGvCxiDx_ptPGMJ--36" style="edgeStyle=orthogonalEdgeStyle;rounded=0;orthogonalLoop=1;jettySize=auto;html=1;exitX=0;exitY=0.5;exitDx=0;exitDy=0;startArrow=classic;startFill=1;endArrow=none;endFill=0;entryX=0.5;entryY=0;entryDx=0;entryDy=0;fillColor=#ffe6cc;strokeColor=#d79b00;" edge="1" parent="tzvmRdzede0Eh-RmRUq3-1" target="rM5vIGvCxiDx_ptPGMJ--60">
          <mxGeometry relative="1" as="geometry">
            <mxPoint x="170" y="410" as="targetPoint" />
            <mxPoint x="90" y="410" as="sourcePoint" />
          </mxGeometry>
        </mxCell>
        <mxCell id="rM5vIGvCxiDx_ptPGMJ--37" value="ready" style="edgeLabel;html=1;align=center;verticalAlign=middle;resizable=0;points=[];" vertex="1" connectable="0" parent="rM5vIGvCxiDx_ptPGMJ--36">
          <mxGeometry x="0.1232" y="-1" relative="1" as="geometry">
            <mxPoint x="-190" y="-6" as="offset" />
          </mxGeometry>
        </mxCell>
        <mxCell id="rM5vIGvCxiDx_ptPGMJ--40" style="edgeStyle=orthogonalEdgeStyle;rounded=0;orthogonalLoop=1;jettySize=auto;html=1;exitX=0.5;exitY=0;exitDx=0;exitDy=0;entryX=0.001;entryY=0.921;entryDx=0;entryDy=0;entryPerimeter=0;" edge="1" parent="tzvmRdzede0Eh-RmRUq3-1" source="rM5vIGvCxiDx_ptPGMJ--42" target="tzvmRdzede0Eh-RmRUq3-2">
          <mxGeometry relative="1" as="geometry">
            <Array as="points">
              <mxPoint x="870" y="620" />
              <mxPoint x="870" y="764" />
            </Array>
          </mxGeometry>
        </mxCell>
        <mxCell id="rM5vIGvCxiDx_ptPGMJ--41" value="rdata" style="edgeLabel;html=1;align=center;verticalAlign=middle;resizable=0;points=[];" vertex="1" connectable="0" parent="rM5vIGvCxiDx_ptPGMJ--40">
          <mxGeometry x="0.8927" y="-2" relative="1" as="geometry">
            <mxPoint as="offset" />
          </mxGeometry>
        </mxCell>
        <mxCell id="rM5vIGvCxiDx_ptPGMJ--46" style="edgeStyle=orthogonalEdgeStyle;rounded=0;orthogonalLoop=1;jettySize=auto;html=1;exitX=1;exitY=0.7;exitDx=0;exitDy=0;entryX=0.25;entryY=1;entryDx=0;entryDy=0;exitPerimeter=0;" edge="1" parent="tzvmRdzede0Eh-RmRUq3-1" source="tzvmRdzede0Eh-RmRUq3-4" target="rM5vIGvCxiDx_ptPGMJ--42">
          <mxGeometry relative="1" as="geometry">
            <mxPoint x="740" y="580" as="sourcePoint" />
          </mxGeometry>
        </mxCell>
        <mxCell id="rM5vIGvCxiDx_ptPGMJ--42" value="offset /&lt;div&gt;size&lt;br&gt;&lt;div&gt;mux /&lt;/div&gt;&lt;/div&gt;&lt;div&gt;logic&lt;/div&gt;" style="shape=trapezoid;perimeter=trapezoidPerimeter;whiteSpace=wrap;html=1;fixedSize=1;direction=south;" vertex="1" parent="tzvmRdzede0Eh-RmRUq3-1">
          <mxGeometry x="780" y="560" width="60" height="120" as="geometry" />
        </mxCell>
        <mxCell id="rM5vIGvCxiDx_ptPGMJ--43" style="edgeStyle=orthogonalEdgeStyle;rounded=0;orthogonalLoop=1;jettySize=auto;html=1;exitX=1.009;exitY=0.888;exitDx=0;exitDy=0;entryX=0.75;entryY=1;entryDx=0;entryDy=0;exitPerimeter=0;" edge="1" parent="tzvmRdzede0Eh-RmRUq3-1" source="tzvmRdzede0Eh-RmRUq3-4" target="rM5vIGvCxiDx_ptPGMJ--42">
          <mxGeometry relative="1" as="geometry" />
        </mxCell>
        <mxCell id="rM5vIGvCxiDx_ptPGMJ--44" style="edgeStyle=orthogonalEdgeStyle;rounded=0;orthogonalLoop=1;jettySize=auto;html=1;exitX=1.003;exitY=0.819;exitDx=0;exitDy=0;entryX=0.5;entryY=1;entryDx=0;entryDy=0;exitPerimeter=0;" edge="1" parent="tzvmRdzede0Eh-RmRUq3-1" source="tzvmRdzede0Eh-RmRUq3-4" target="rM5vIGvCxiDx_ptPGMJ--42">
          <mxGeometry relative="1" as="geometry" />
        </mxCell>
        <mxCell id="rM5vIGvCxiDx_ptPGMJ--50" style="edgeStyle=orthogonalEdgeStyle;rounded=0;orthogonalLoop=1;jettySize=auto;html=1;exitX=0;exitY=0.5;exitDx=0;exitDy=0;startArrow=classic;startFill=1;endArrow=none;endFill=0;fillColor=#e1d5e7;strokeColor=#9673a6;" edge="1" parent="tzvmRdzede0Eh-RmRUq3-1">
          <mxGeometry relative="1" as="geometry">
            <mxPoint x="90" y="510" as="targetPoint" />
            <mxPoint x="170" y="510" as="sourcePoint" />
          </mxGeometry>
        </mxCell>
        <mxCell id="rM5vIGvCxiDx_ptPGMJ--51" value="addr" style="edgeLabel;html=1;align=center;verticalAlign=middle;resizable=0;points=[];" vertex="1" connectable="0" parent="rM5vIGvCxiDx_ptPGMJ--50">
          <mxGeometry x="0.1232" y="-1" relative="1" as="geometry">
            <mxPoint x="-5" y="1" as="offset" />
          </mxGeometry>
        </mxCell>
        <mxCell id="rM5vIGvCxiDx_ptPGMJ--56" style="edgeStyle=orthogonalEdgeStyle;rounded=0;orthogonalLoop=1;jettySize=auto;html=1;exitX=0.5;exitY=1;exitDx=0;exitDy=0;entryX=1;entryY=0.5;entryDx=0;entryDy=0;fillColor=#e1d5e7;strokeColor=#9673a6;" edge="1" parent="tzvmRdzede0Eh-RmRUq3-1" source="rM5vIGvCxiDx_ptPGMJ--55" target="rM5vIGvCxiDx_ptPGMJ--42">
          <mxGeometry relative="1" as="geometry">
            <Array as="points">
              <mxPoint x="190" y="740" />
              <mxPoint x="810" y="740" />
            </Array>
          </mxGeometry>
        </mxCell>
        <mxCell id="rM5vIGvCxiDx_ptPGMJ--57" value="offset" style="edgeLabel;html=1;align=center;verticalAlign=middle;resizable=0;points=[];" vertex="1" connectable="0" parent="rM5vIGvCxiDx_ptPGMJ--56">
          <mxGeometry x="-0.9579" y="-2" relative="1" as="geometry">
            <mxPoint x="17" y="-9" as="offset" />
          </mxGeometry>
        </mxCell>
        <mxCell id="rM5vIGvCxiDx_ptPGMJ--63" style="edgeStyle=orthogonalEdgeStyle;rounded=0;orthogonalLoop=1;jettySize=auto;html=1;exitX=0.5;exitY=0;exitDx=0;exitDy=0;entryX=0;entryY=0.5;entryDx=0;entryDy=0;fillColor=#e1d5e7;strokeColor=#9673a6;" edge="1" parent="tzvmRdzede0Eh-RmRUq3-1" source="rM5vIGvCxiDx_ptPGMJ--55" target="rM5vIGvCxiDx_ptPGMJ--60">
          <mxGeometry relative="1" as="geometry">
            <Array as="points">
              <mxPoint x="190" y="470" />
              <mxPoint x="410" y="470" />
              <mxPoint x="410" y="490" />
            </Array>
          </mxGeometry>
        </mxCell>
        <mxCell id="rM5vIGvCxiDx_ptPGMJ--64" value="Rest compared against tag" style="edgeLabel;html=1;align=center;verticalAlign=middle;resizable=0;points=[];" vertex="1" connectable="0" parent="rM5vIGvCxiDx_ptPGMJ--63">
          <mxGeometry x="0.5203" relative="1" as="geometry">
            <mxPoint x="-125" y="-10" as="offset" />
          </mxGeometry>
        </mxCell>
        <mxCell id="rM5vIGvCxiDx_ptPGMJ--75" style="edgeStyle=orthogonalEdgeStyle;rounded=0;orthogonalLoop=1;jettySize=auto;html=1;exitX=1;exitY=0.5;exitDx=0;exitDy=0;entryX=0;entryY=0.5;entryDx=0;entryDy=0;fillColor=#e1d5e7;strokeColor=#9673a6;" edge="1" parent="tzvmRdzede0Eh-RmRUq3-1" source="rM5vIGvCxiDx_ptPGMJ--55" target="rM5vIGvCxiDx_ptPGMJ--74">
          <mxGeometry relative="1" as="geometry">
            <Array as="points">
              <mxPoint x="370" y="510" />
              <mxPoint x="370" y="705" />
            </Array>
          </mxGeometry>
        </mxCell>
        <mxCell id="rM5vIGvCxiDx_ptPGMJ--55" value="split" style="ellipse;whiteSpace=wrap;html=1;aspect=fixed;" vertex="1" parent="tzvmRdzede0Eh-RmRUq3-1">
          <mxGeometry x="170" y="490" width="40" height="40" as="geometry" />
        </mxCell>
        <mxCell id="rM5vIGvCxiDx_ptPGMJ--58" style="edgeStyle=orthogonalEdgeStyle;rounded=0;orthogonalLoop=1;jettySize=auto;html=1;exitX=1;exitY=0.5;exitDx=0;exitDy=0;entryX=0.011;entryY=0.596;entryDx=0;entryDy=0;entryPerimeter=0;fillColor=#e1d5e7;strokeColor=#9673a6;" edge="1" parent="tzvmRdzede0Eh-RmRUq3-1" source="rM5vIGvCxiDx_ptPGMJ--55" target="rM5vIGvCxiDx_ptPGMJ--8">
          <mxGeometry relative="1" as="geometry" />
        </mxCell>
        <mxCell id="rM5vIGvCxiDx_ptPGMJ--59" value="index" style="edgeLabel;html=1;align=center;verticalAlign=middle;resizable=0;points=[];" vertex="1" connectable="0" parent="rM5vIGvCxiDx_ptPGMJ--58">
          <mxGeometry x="-0.8936" y="2" relative="1" as="geometry">
            <mxPoint as="offset" />
          </mxGeometry>
        </mxCell>
        <mxCell id="rM5vIGvCxiDx_ptPGMJ--60" value="==" style="ellipse;whiteSpace=wrap;html=1;aspect=fixed;" vertex="1" parent="tzvmRdzede0Eh-RmRUq3-1">
          <mxGeometry x="440" y="470" width="40" height="40" as="geometry" />
        </mxCell>
        <mxCell id="rM5vIGvCxiDx_ptPGMJ--61" style="edgeStyle=orthogonalEdgeStyle;rounded=0;orthogonalLoop=1;jettySize=auto;html=1;exitX=1;exitY=0.619;exitDx=0;exitDy=0;entryX=1;entryY=0.5;entryDx=0;entryDy=0;fillColor=#dae8fc;strokeColor=#6c8ebf;exitPerimeter=0;" edge="1" parent="tzvmRdzede0Eh-RmRUq3-1" source="tzvmRdzede0Eh-RmRUq3-4" target="rM5vIGvCxiDx_ptPGMJ--60">
          <mxGeometry relative="1" as="geometry">
            <Array as="points">
              <mxPoint x="750" y="570" />
              <mxPoint x="750" y="380" />
              <mxPoint x="505" y="380" />
              <mxPoint x="505" y="490" />
            </Array>
          </mxGeometry>
        </mxCell>
        <mxCell id="rM5vIGvCxiDx_ptPGMJ--62" value="tag" style="edgeLabel;html=1;align=center;verticalAlign=middle;resizable=0;points=[];" vertex="1" connectable="0" parent="rM5vIGvCxiDx_ptPGMJ--61">
          <mxGeometry x="0.9027" relative="1" as="geometry">
            <mxPoint x="-15" y="12" as="offset" />
          </mxGeometry>
        </mxCell>
        <mxCell id="rM5vIGvCxiDx_ptPGMJ--65" style="edgeStyle=orthogonalEdgeStyle;rounded=0;orthogonalLoop=1;jettySize=auto;html=1;exitX=0.5;exitY=0;exitDx=0;exitDy=0;entryX=0.13;entryY=0.77;entryDx=0;entryDy=0;entryPerimeter=0;fillColor=#ffe6cc;strokeColor=#d79b00;" edge="1" parent="tzvmRdzede0Eh-RmRUq3-1" source="rM5vIGvCxiDx_ptPGMJ--60" target="rM5vIGvCxiDx_ptPGMJ--22">
          <mxGeometry relative="1" as="geometry">
            <Array as="points">
              <mxPoint x="460" y="336" />
            </Array>
          </mxGeometry>
        </mxCell>
        <mxCell id="rM5vIGvCxiDx_ptPGMJ--93" value="hit" style="edgeLabel;html=1;align=center;verticalAlign=middle;resizable=0;points=[];" vertex="1" connectable="0" parent="rM5vIGvCxiDx_ptPGMJ--65">
          <mxGeometry x="-0.7928" relative="1" as="geometry">
            <mxPoint as="offset" />
          </mxGeometry>
        </mxCell>
        <mxCell id="rM5vIGvCxiDx_ptPGMJ--78" style="edgeStyle=orthogonalEdgeStyle;rounded=0;orthogonalLoop=1;jettySize=auto;html=1;exitX=0;exitY=0.25;exitDx=0;exitDy=0;entryX=0.5;entryY=1;entryDx=0;entryDy=0;" edge="1" parent="tzvmRdzede0Eh-RmRUq3-1" source="rM5vIGvCxiDx_ptPGMJ--74" target="rM5vIGvCxiDx_ptPGMJ--60">
          <mxGeometry relative="1" as="geometry" />
        </mxCell>
        <mxCell id="rM5vIGvCxiDx_ptPGMJ--79" value="line_valid" style="edgeLabel;html=1;align=center;verticalAlign=middle;resizable=0;points=[];" vertex="1" connectable="0" parent="rM5vIGvCxiDx_ptPGMJ--78">
          <mxGeometry x="0.7109" y="1" relative="1" as="geometry">
            <mxPoint x="1" y="-20" as="offset" />
          </mxGeometry>
        </mxCell>
        <mxCell id="rM5vIGvCxiDx_ptPGMJ--74" value="Valid and Dirty stored in flops to allow combinational access" style="rounded=0;whiteSpace=wrap;html=1;" vertex="1" parent="tzvmRdzede0Eh-RmRUq3-1">
          <mxGeometry x="530" y="690" width="210" height="30" as="geometry" />
        </mxCell>
        <mxCell id="rM5vIGvCxiDx_ptPGMJ--77" style="edgeStyle=orthogonalEdgeStyle;rounded=0;orthogonalLoop=1;jettySize=auto;html=1;exitX=1;exitY=0.25;exitDx=0;exitDy=0;entryX=0.8;entryY=0.8;entryDx=0;entryDy=0;entryPerimeter=0;" edge="1" parent="tzvmRdzede0Eh-RmRUq3-1" source="tzvmRdzede0Eh-RmRUq3-4" target="rM5vIGvCxiDx_ptPGMJ--22">
          <mxGeometry relative="1" as="geometry">
            <Array as="points">
              <mxPoint x="770" y="462" />
              <mxPoint x="770" y="370" />
              <mxPoint x="670" y="370" />
            </Array>
          </mxGeometry>
        </mxCell>
        <mxCell id="rM5vIGvCxiDx_ptPGMJ--82" style="edgeStyle=orthogonalEdgeStyle;rounded=0;orthogonalLoop=1;jettySize=auto;html=1;exitX=0;exitY=0.901;exitDx=0;exitDy=0;entryX=1;entryY=0.25;entryDx=0;entryDy=0;exitPerimeter=0;" edge="1" parent="tzvmRdzede0Eh-RmRUq3-1" source="tzvmRdzede0Eh-RmRUq3-2" target="rM5vIGvCxiDx_ptPGMJ--42">
          <mxGeometry relative="1" as="geometry">
            <Array as="points">
              <mxPoint x="91" y="750" />
              <mxPoint x="822" y="750" />
            </Array>
          </mxGeometry>
        </mxCell>
        <mxCell id="rM5vIGvCxiDx_ptPGMJ--84" value="size" style="edgeLabel;html=1;align=center;verticalAlign=middle;resizable=0;points=[];" vertex="1" connectable="0" parent="rM5vIGvCxiDx_ptPGMJ--82">
          <mxGeometry x="-0.9512" y="-2" relative="1" as="geometry">
            <mxPoint as="offset" />
          </mxGeometry>
        </mxCell>
        <mxCell id="rM5vIGvCxiDx_ptPGMJ--86" style="edgeStyle=orthogonalEdgeStyle;rounded=0;orthogonalLoop=1;jettySize=auto;html=1;exitX=0.55;exitY=0.95;exitDx=0;exitDy=0;exitPerimeter=0;entryX=0;entryY=0.75;entryDx=0;entryDy=0;" edge="1" parent="tzvmRdzede0Eh-RmRUq3-1" source="rM5vIGvCxiDx_ptPGMJ--85" target="rM5vIGvCxiDx_ptPGMJ--74">
          <mxGeometry relative="1" as="geometry">
            <Array as="points">
              <mxPoint x="306" y="712" />
            </Array>
          </mxGeometry>
        </mxCell>
        <mxCell id="rM5vIGvCxiDx_ptPGMJ--87" value="set_dirty" style="edgeLabel;html=1;align=center;verticalAlign=middle;resizable=0;points=[];" vertex="1" connectable="0" parent="rM5vIGvCxiDx_ptPGMJ--86">
          <mxGeometry x="-0.8289" y="-1" relative="1" as="geometry">
            <mxPoint as="offset" />
          </mxGeometry>
        </mxCell>
        <mxCell id="rM5vIGvCxiDx_ptPGMJ--88" style="edgeStyle=orthogonalEdgeStyle;rounded=0;orthogonalLoop=1;jettySize=auto;html=1;exitX=0.625;exitY=0.2;exitDx=0;exitDy=0;exitPerimeter=0;entryX=0.88;entryY=0.25;entryDx=0;entryDy=0;entryPerimeter=0;fillColor=#d5e8d4;strokeColor=#82b366;" edge="1" parent="tzvmRdzede0Eh-RmRUq3-1" target="rM5vIGvCxiDx_ptPGMJ--85">
          <mxGeometry relative="1" as="geometry">
            <mxPoint x="310" y="390" as="sourcePoint" />
            <Array as="points">
              <mxPoint x="311" y="390" />
              <mxPoint x="311" y="430" />
              <mxPoint x="346" y="430" />
            </Array>
          </mxGeometry>
        </mxCell>
        <mxCell id="rM5vIGvCxiDx_ptPGMJ--89" style="edgeStyle=orthogonalEdgeStyle;rounded=0;orthogonalLoop=1;jettySize=auto;html=1;exitX=0.875;exitY=0.5;exitDx=0;exitDy=0;exitPerimeter=0;entryX=0;entryY=0.75;entryDx=0;entryDy=0;" edge="1" parent="tzvmRdzede0Eh-RmRUq3-1" source="rM5vIGvCxiDx_ptPGMJ--85" target="rM5vIGvCxiDx_ptPGMJ--8">
          <mxGeometry relative="1" as="geometry" />
        </mxCell>
        <mxCell id="rM5vIGvCxiDx_ptPGMJ--85" value="Write logic /&lt;div&gt;byte mask&lt;/div&gt;&lt;div&gt;generation&lt;/div&gt;" style="ellipse;shape=cloud;whiteSpace=wrap;html=1;" vertex="1" parent="tzvmRdzede0Eh-RmRUq3-1">
          <mxGeometry x="240" y="570" width="120" height="80" as="geometry" />
        </mxCell>
        <mxCell id="rM5vIGvCxiDx_ptPGMJ--90" style="edgeStyle=orthogonalEdgeStyle;rounded=0;orthogonalLoop=1;jettySize=auto;html=1;exitX=0.5;exitY=1;exitDx=0;exitDy=0;entryX=0.16;entryY=0.55;entryDx=0;entryDy=0;entryPerimeter=0;fillColor=#e1d5e7;strokeColor=#9673a6;" edge="1" parent="tzvmRdzede0Eh-RmRUq3-1" source="rM5vIGvCxiDx_ptPGMJ--55" target="rM5vIGvCxiDx_ptPGMJ--85">
          <mxGeometry relative="1" as="geometry">
            <Array as="points">
              <mxPoint x="190" y="614" />
            </Array>
          </mxGeometry>
        </mxCell>
        <mxCell id="rM5vIGvCxiDx_ptPGMJ--91" style="edgeStyle=orthogonalEdgeStyle;rounded=0;orthogonalLoop=1;jettySize=auto;html=1;exitX=0;exitY=0.642;exitDx=0;exitDy=0;exitPerimeter=0;entryX=0.4;entryY=0.1;entryDx=0;entryDy=0;entryPerimeter=0;" edge="1" parent="tzvmRdzede0Eh-RmRUq3-1" source="tzvmRdzede0Eh-RmRUq3-2" target="rM5vIGvCxiDx_ptPGMJ--85">
          <mxGeometry relative="1" as="geometry">
            <Array as="points">
              <mxPoint x="288" y="566" />
            </Array>
          </mxGeometry>
        </mxCell>
        <mxCell id="rM5vIGvCxiDx_ptPGMJ--92" value="wdata" style="edgeLabel;html=1;align=center;verticalAlign=middle;resizable=0;points=[];" vertex="1" connectable="0" parent="rM5vIGvCxiDx_ptPGMJ--91">
          <mxGeometry x="-0.8178" y="1" relative="1" as="geometry">
            <mxPoint x="11" y="5" as="offset" />
          </mxGeometry>
        </mxCell>
        <mxCell id="rM5vIGvCxiDx_ptPGMJ--94" style="edgeStyle=orthogonalEdgeStyle;rounded=0;orthogonalLoop=1;jettySize=auto;html=1;exitX=0;exitY=0.75;exitDx=0;exitDy=0;entryX=0.13;entryY=0.77;entryDx=0;entryDy=0;entryPerimeter=0;" edge="1" parent="tzvmRdzede0Eh-RmRUq3-1" source="tzvmRdzede0Eh-RmRUq3-2" target="rM5vIGvCxiDx_ptPGMJ--85">
          <mxGeometry relative="1" as="geometry">
            <Array as="points">
              <mxPoint x="256" y="643" />
            </Array>
          </mxGeometry>
        </mxCell>
        <mxCell id="rM5vIGvCxiDx_ptPGMJ--95" value="wen_nren" style="edgeLabel;html=1;align=center;verticalAlign=middle;resizable=0;points=[];" vertex="1" connectable="0" parent="rM5vIGvCxiDx_ptPGMJ--94">
          <mxGeometry x="-0.7807" y="1" relative="1" as="geometry">
            <mxPoint x="11" y="8" as="offset" />
          </mxGeometry>
        </mxCell>
        <mxCell id="rM5vIGvCxiDx_ptPGMJ--96" style="edgeStyle=orthogonalEdgeStyle;rounded=0;orthogonalLoop=1;jettySize=auto;html=1;exitX=1;exitY=0.5;exitDx=0;exitDy=0;entryX=0.96;entryY=0.7;entryDx=0;entryDy=0;entryPerimeter=0;startArrow=classic;startFill=1;fillColor=#f8cecc;strokeColor=#b85450;" edge="1" parent="tzvmRdzede0Eh-RmRUq3-1" source="rM5vIGvCxiDx_ptPGMJ--74" target="rM5vIGvCxiDx_ptPGMJ--22">
          <mxGeometry relative="1" as="geometry">
            <Array as="points">
              <mxPoint x="930" y="705" />
              <mxPoint x="930" y="325" />
            </Array>
          </mxGeometry>
        </mxCell>
        <mxCell id="rM5vIGvCxiDx_ptPGMJ--97" style="edgeStyle=orthogonalEdgeStyle;rounded=0;orthogonalLoop=1;jettySize=auto;html=1;exitX=0.5;exitY=0;exitDx=0;exitDy=0;entryX=0.625;entryY=0.2;entryDx=0;entryDy=0;entryPerimeter=0;fillColor=#ffe6cc;strokeColor=#d79b00;" edge="1" parent="tzvmRdzede0Eh-RmRUq3-1" source="rM5vIGvCxiDx_ptPGMJ--60" target="rM5vIGvCxiDx_ptPGMJ--85">
          <mxGeometry relative="1" as="geometry">
            <Array as="points">
              <mxPoint x="460" y="450" />
              <mxPoint x="390" y="450" />
              <mxPoint x="390" y="530" />
              <mxPoint x="315" y="530" />
            </Array>
          </mxGeometry>
        </mxCell>
        <mxCell id="eBlOSpBa8U37B10zt_gD-0" value="&lt;div&gt;TODO&lt;/div&gt;Will the SRAM have one cycle or two cycles of latency (BRAM or LUTRAM)?" style="shape=note;size=20;whiteSpace=wrap;html=1;fillColor=#fff2cc;strokeColor=#d6b656;" vertex="1" parent="tzvmRdzede0Eh-RmRUq3-1">
          <mxGeometry x="680" y="130" width="130" height="110" as="geometry" />
        </mxCell>
        <mxCell id="eBlOSpBa8U37B10zt_gD-1" value="TODO cache specs:&lt;br&gt;Writeback, ways, line length, associativity/direct mapped&lt;div&gt;&lt;/div&gt;" style="shape=note;size=20;whiteSpace=wrap;html=1;fillColor=#fff2cc;strokeColor=#d6b656;" vertex="1" parent="tzvmRdzede0Eh-RmRUq3-1">
          <mxGeometry x="835" y="130" width="130" height="110" as="geometry" />
        </mxCell>
      </root>
    </mxGraphModel>
  </diagram>
</mxfile>
